<?xml version="1.0" standalone="no"?>
<!DOCTYPE svg PUBLIC "-//W3C//DTD SVG 20010904//EN"
 "http://www.w3.org/TR/2001/REC-SVG-20010904/DTD/svg10.dtd">
<svg version="1.0" xmlns="http://www.w3.org/2000/svg"
 width="445.000000pt" height="457.000000pt" viewBox="0 0 445.000000 457.000000"
 preserveAspectRatio="xMidYMid meet">

<g transform="translate(0.000000,457.000000) scale(0.100000,-0.100000)"
fill="#000000" stroke="none">
<path d="M1603 4193 l-613 -365 0 -737 0 -736 572 -340 c314 -187 592 -352
617 -367 l46 -27 615 364 615 363 3 740 2 740 -615 366 c-339 201 -619 366
-623 365 -4 0 -283 -165 -619 -366z m755 -329 c388 -79 660 -443 628 -840 -27
-326 -232 -587 -546 -694 -100 -34 -316 -40 -430 -11 -284 72 -507 289 -581
568 -30 109 -30 298 -1 404 79 293 315 514 612 574 91 18 227 18 318 -1z"/>
<path d="M669 3823 c-423 -434 -669 -1030 -669 -1617 0 -409 110 -831 300
-1149 355 -597 957 -955 1768 -1051 l52 -7 0 708 -1 708 -679 404 -680 403 -2
845 -3 844 -86 -88z"/>
<path d="M3698 3066 l-3 -848 -680 -402 -680 -403 -3 -701 c-2 -664 -1 -702
15 -702 58 0 318 47 447 80 490 125 865 350 1159 694 441 518 601 1300 411
2016 -104 395 -321 777 -593 1045 l-71 69 -2 -848z"/>
</g>
</svg>
